<?xml version="1.0" encoding="UTF-8"?>
<svg xmlns="http://www.w3.org/2000/svg" width="52" height="46" viewBox="0 0 52 46" fill="none">
  <path d="M15.0881 45.0004H0.617188V7.84246L7.56879 3.34143L15.0881 7.84943V35.9077" stroke="#0A1E46" stroke-width="0.8" stroke-linecap="round" stroke-linejoin="round"></path>
  <path d="M17.6094 15.0388L25.5234 9.96643L34.0813 15.0388" stroke="#0A1E46" stroke-width="0.8" stroke-linecap="round" stroke-linejoin="round"></path>
  <path d="M28.9168 33.5856H23.0938V44.9914H28.9168V33.5856Z" stroke="#4ECC97" stroke-width="0.8" stroke-linecap="round" stroke-linejoin="round"></path>
  <path d="M11.1963 10.3981H4.50781V13.5126H11.1963V10.3981Z" stroke="#0A1E46" stroke-width="0.8" stroke-linecap="round" stroke-linejoin="round"></path>
  <path d="M11.1963 17.7418H4.50781V20.8563H11.1963V17.7418Z" stroke="#0A1E46" stroke-width="0.8" stroke-linecap="round" stroke-linejoin="round"></path>
  <path d="M11.1963 25.3375H4.50781V28.452H11.1963V25.3375Z" stroke="#0A1E46" stroke-width="0.8" stroke-linecap="round" stroke-linejoin="round"></path>
  <path d="M11.1963 32.9117H4.50781V36.0262H11.1963V32.9117Z" stroke="#0A1E46" stroke-width="0.8" stroke-linecap="round" stroke-linejoin="round"></path>
  <path d="M36.9219 35.9077V7.84943L43.8735 3.34143L51.3928 7.84943V45.0004H36.9219" stroke="#0A1E46" stroke-width="0.8" stroke-linecap="round" stroke-linejoin="round"></path>
  <path d="M47.501 10.3981H40.8125V13.5126H47.501V10.3981Z" stroke="#0A1E46" stroke-width="0.8" stroke-linecap="round" stroke-linejoin="round"></path>
  <path d="M47.501 17.7418H40.8125V20.8563H47.501V17.7418Z" stroke="#0A1E46" stroke-width="0.8" stroke-linecap="round" stroke-linejoin="round"></path>
  <path d="M47.501 25.3373H40.8125V28.4518H47.501V25.3373Z" stroke="#0A1E46" stroke-width="0.8" stroke-linecap="round" stroke-linejoin="round"></path>
  <path d="M47.501 32.9117H40.8125V36.0262H47.501V32.9117Z" stroke="#0A1E46" stroke-width="0.8" stroke-linecap="round" stroke-linejoin="round"></path>
  <path d="M29.1613 21.5887C29.4452 19.8189 28.2612 18.1537 26.5164 17.868C24.7716 17.5824 23.1306 18.7808 22.8467 20.5505C22.5628 22.3203 23.7468 23.9855 25.4917 24.2712C27.2365 24.5569 28.8774 23.3584 29.1613 21.5887Z" stroke="#0A1E46" stroke-width="0.8" stroke-linecap="round" stroke-linejoin="round"></path>
  <path d="M25.4844 0.999634V9.77874" stroke="#0A1E46" stroke-width="0.8" stroke-linecap="round" stroke-linejoin="round"></path>
  <path d="M24.3913 1.8551H20.0224L21.144 3.55518L19.9531 5.31797L24.2598 5.2901" stroke="#4ECC97" stroke-width="0.8" stroke-linecap="round" stroke-linejoin="round"></path>
  <path d="M32.6997 27.3434H19.8281V30.3185H32.6997V27.3434Z" stroke="#0A1E46" stroke-width="0.8" stroke-linecap="round" stroke-linejoin="round"></path>
</svg>
