<?xml version="1.0" encoding="UTF-8"?>
<svg xmlns="http://www.w3.org/2000/svg" width="38" height="46" viewBox="0 0 38 46" fill="none">
  <path d="M19.0192 1.06122V1C10.1253 8.79794 1.27383 8.19991 1.27383 8.19991V22.9058C1.17926 41.5766 18.187 44.8211 18.9861 44.9623V45C18.9861 45 36.8261 42.0569 36.7315 22.9388V8.23288C36.7315 8.23288 27.899 8.83091 19.0192 1.06592V1.06122Z" stroke="#0A1E46" stroke-width="0.8" stroke-linecap="round" stroke-linejoin="round"></path>
  <path d="M18.9912 39.4906C18.9912 39.4906 32.3628 37.2868 32.2919 22.9577V11.9341C32.2919 11.9341 25.677 12.3815 19.0195 6.56125V6.51416C12.3526 12.3579 5.71875 11.9059 5.71875 11.9059" stroke="#0A1E46" stroke-width="0.8" stroke-linecap="round" stroke-linejoin="round"></path>
  <path d="M24.1435 22.374H13.8594V30.2049H24.1435V22.374Z" stroke="#1464FF" stroke-width="0.8" stroke-linecap="round" stroke-linejoin="round"></path>
  <path d="M15.4375 20.81V18.3661C15.4375 16.4072 17.0309 14.8203 18.9979 14.8203C20.9649 14.8203 22.5584 16.4072 22.5584 18.3661V20.81" stroke="#1464FF" stroke-width="0.8" stroke-linecap="round" stroke-linejoin="round"></path>
</svg>
